<?xml version="1.0" encoding="UTF-8"?>
<svg width="158px" height="50px" viewBox="0 0 158 50" version="1.1" xmlns="http://www.w3.org/2000/svg" xmlns:xlink="http://www.w3.org/1999/xlink">
    <!-- Generator: Sketch 43.2 (39069) - http://www.bohemiancoding.com/sketch -->
    <title>Group</title>
    <desc>Created with Sketch.</desc>
    <defs></defs>
    <g id="Page-1" stroke="none" stroke-width="1" fill="none" fill-rule="evenodd">
        <g id="App-Store-172x50-Bordered">
            <g id="Group">
                <g id="Rectangle-1-+-Imported-Layers">
                    <rect id="Rectangle-1" stroke="#FFFFFF" x="0.5" y="0.5" width="157" height="49" rx="10"></rect>
                    <path d="M31.6886857,17.2488095 C34.9314286,17.2488095 37.0050286,20.3863333 37.0050286,20.3863333 C37.0050286,20.3863333 33.8418286,22.1028571 33.8418286,25.8307381 C33.8418286,30.2553095 37.8155429,31.5423571 37.8155429,31.5423571 C37.8155429,31.5423571 34.6790857,38.9843095 31.1572571,38.9843095 C29.1769143,38.9843095 29.0445714,37.8450238 26.4128,37.8450238 C24.1273143,37.8450238 23.3565714,38.9843095 21.6155429,38.9843095 C18.2925714,38.9843095 14,31.7301667 14,25.8307381 C14,19.7027619 18.3460571,17.2488095 21.0704,17.2488095 C23.4628571,17.2488095 24.4592,18.6566905 26.3860571,18.6566905 C28.0077714,18.6566905 29.2838857,17.2488095 31.6886857,17.2488095 L31.6886857,17.2488095 Z M31.1312,11 C31.6091429,14.0035714 28.8848,17.7183333 25.6290286,17.5975 C25.1504,13.7757143 28.6592,11.201619 31.1312,11 Z M55.7131162,23.814169 L57.9253364,23.814169 L63.8035214,38.8572661 L61.5913013,38.8572661 L59.9479377,34.327482 L53.5851711,34.327482 L51.8996701,38.8572661 L49.856,38.8572661 L55.7131162,23.814169 Z M54.217234,32.6419809 L59.3158748,32.6419809 L56.8086919,25.6260826 L56.7665544,25.6260826 L54.217234,32.6419809 Z M65.0465785,27.9647154 L66.8374234,27.9647154 L66.8374234,29.4395288 L66.8795609,29.4395288 C67.174525,28.8355546 67.6380332,28.3966264 68.2700993,28.1227311 C68.9021653,27.8488358 69.5974276,27.7118902 70.3559069,27.7118902 C71.1986616,27.7118902 71.9325495,27.8663929 72.5575926,28.175403 C73.1826357,28.4844131 73.7023267,28.9022727 74.1166811,29.4289944 C74.5310356,29.9557162 74.8435524,30.5631928 75.0542411,31.2514425 C75.2649298,31.9396922 75.3702726,32.6700687 75.3702726,33.4425939 C75.3702726,34.2151191 75.2684412,34.9454956 75.0647755,35.6337453 C74.8611098,36.321995 74.5521043,36.9224488 74.1377499,37.4351246 C73.7233955,37.9478004 73.2037045,38.3516143 72.5786614,38.6465785 C71.9536183,38.9415426 71.2267532,39.0890225 70.3980444,39.0890225 C70.131172,39.0890225 69.8327009,39.0609311 69.5026219,39.0047474 C69.172543,38.9485638 68.8459804,38.8572667 68.5229244,38.7308535 C68.1998684,38.6044403 67.8943744,38.4323805 67.6064332,38.2146688 C67.318492,37.9969572 67.0762037,37.7265774 66.8795609,37.4035214 L66.8374234,37.4035214 L66.8374234,43.0078125 L65.0465785,43.0078125 L65.0465785,27.9647154 Z M73.4740838,33.3161813 C73.4740838,32.8105285 73.4073668,32.3154175 73.2739306,31.8308335 C73.1404944,31.3462495 72.9368318,30.9143442 72.6629365,30.5351045 C72.3890412,30.1558649 72.0378986,29.8538823 71.6094983,29.6291477 C71.181098,29.4044131 70.6789641,29.2920475 70.1030817,29.2920475 C69.4991075,29.2920475 68.9864393,29.4114359 68.565062,29.6502165 C68.1436846,29.888997 67.7995649,30.2015138 67.5326926,30.5877764 C67.2658202,30.974039 67.0726918,31.4129672 66.9533016,31.9045742 C66.8339113,32.3961811 66.7742171,32.8948035 66.7742171,33.4004564 C66.7742171,33.934201 66.8374227,34.4503806 66.9638359,34.9490105 C67.0902492,35.4476404 67.2904004,35.8865686 67.5642957,36.2658082 C67.838191,36.6450478 68.192845,36.9505418 68.6282683,37.1822994 C69.0636915,37.414057 69.5904054,37.529934 70.2084255,37.529934 C70.8264457,37.529934 71.3426252,37.4105455 71.7569796,37.171765 C72.171334,36.9329845 72.5049195,36.6169562 72.7577459,36.2236707 C73.0105723,35.8303851 73.1931664,35.3809227 73.3055337,34.8752698 C73.417901,34.3696169 73.4740838,33.849926 73.4740838,33.3161813 Z M77.5403552,27.9647154 L79.3312001,27.9647154 L79.3312001,29.4395288 L79.3733376,29.4395288 C79.6683018,28.8355546 80.1318099,28.3966264 80.763876,28.1227311 C81.3959421,27.8488358 82.0912043,27.7118902 82.8496836,27.7118902 C83.6924383,27.7118902 84.4263263,27.8663929 85.0513694,28.175403 C85.6764125,28.4844131 86.1961035,28.9022727 86.6104579,29.4289944 C87.0248123,29.9557162 87.3373292,30.5631928 87.5480178,31.2514425 C87.7587065,31.9396922 87.8640493,32.6700687 87.8640493,33.4425939 C87.8640493,34.2151191 87.762218,34.9454956 87.5585522,35.6337453 C87.3548865,36.321995 87.0458811,36.9224488 86.6315266,37.4351246 C86.2171722,37.9478004 85.6974812,38.3516143 85.0724381,38.6465785 C84.447395,38.9415426 83.72053,39.0890225 82.8918211,39.0890225 C82.6249488,39.0890225 82.3264776,39.0609311 81.9963987,39.0047474 C81.6663197,38.9485638 81.3397572,38.8572667 81.0167012,38.7308535 C80.6936452,38.6044403 80.3881512,38.4323805 80.10021,38.2146688 C79.8122688,37.9969572 79.5699804,37.7265774 79.3733376,37.4035214 L79.3312001,37.4035214 L79.3312001,43.0078125 L77.5403552,43.0078125 L77.5403552,27.9647154 Z M85.9678606,33.3161813 C85.9678606,32.8105285 85.9011435,32.3154175 85.7677073,31.8308335 C85.6342712,31.3462495 85.4306085,30.9143442 85.1567132,30.5351045 C84.8828179,30.1558649 84.5316754,29.8538823 84.103275,29.6291477 C83.6748747,29.4044131 83.1727408,29.2920475 82.5968584,29.2920475 C81.9928842,29.2920475 81.4802161,29.4114359 81.0588387,29.6502165 C80.6374613,29.888997 80.2933416,30.2015138 80.0264693,30.5877764 C79.759597,30.974039 79.5664685,31.4129672 79.4470783,31.9045742 C79.327688,32.3961811 79.2679938,32.8948035 79.2679938,33.4004564 C79.2679938,33.934201 79.3311995,34.4503806 79.4576127,34.9490105 C79.5840259,35.4476404 79.7841771,35.8865686 80.0580724,36.2658082 C80.3319677,36.6450478 80.6866217,36.9505418 81.122045,37.1822994 C81.5574683,37.414057 82.0841821,37.529934 82.7022022,37.529934 C83.3202224,37.529934 83.8364019,37.4105455 84.2507564,37.171765 C84.6651108,36.9329845 84.9986962,36.6169562 85.2515226,36.2236707 C85.5043491,35.8303851 85.6869432,35.3809227 85.7993105,34.8752698 C85.9116778,34.3696169 85.9678606,33.849926 85.9678606,33.3161813 Z M104.824404,28.2175405 C104.712037,27.1360053 104.322268,26.3529574 103.655088,25.8683734 C102.987907,25.3837894 102.13463,25.1415011 101.095233,25.1415011 C100.673855,25.1415011 100.259507,25.1836382 99.8521757,25.2679137 C99.4448443,25.3521891 99.0831674,25.4926462 98.7671344,25.6892889 C98.4511014,25.8859317 98.1982787,26.1492886 98.0086589,26.4793676 C97.8190391,26.8094465 97.7242306,27.2202833 97.7242306,27.7118902 C97.7242306,28.1754053 97.8611762,28.5511279 98.1350715,28.8390691 C98.4089668,29.1270103 98.774155,29.3622758 99.2306472,29.5448726 C99.6871393,29.7274695 100.203319,29.8784608 100.779201,29.9978511 C101.355084,30.1172413 101.941492,30.2471641 102.538443,30.3876232 C103.135394,30.5280823 103.721802,30.6931193 104.297685,30.8827391 C104.873567,31.0723589 105.389747,31.328693 105.846239,31.651749 C106.302731,31.974805 106.667919,32.3821303 106.941815,32.8737373 C107.21571,33.3653442 107.352656,33.9833551 107.352656,34.7277885 C107.352656,35.5284055 107.173573,36.2131334 106.815402,36.7819929 C106.457231,37.3508524 105.997235,37.8143605 105.435398,38.1725313 C104.873562,38.5307021 104.245016,38.7905475 103.549744,38.9520755 C102.854471,39.1136035 102.16272,39.1943663 101.474471,39.1943663 C100.631716,39.1943663 99.8346222,39.0890235 99.0831658,38.8783349 C98.3317095,38.6676462 97.6715615,38.3481065 97.1027021,37.9197061 C96.5338426,37.4913058 96.0843802,36.9435234 95.7543012,36.2763426 C95.4242223,35.6091617 95.2591853,34.819091 95.2591853,33.9061067 L97.155374,33.9061067 C97.155374,34.5381727 97.2782739,35.0824437 97.5240774,35.5389358 C97.7698808,35.995428 98.092932,36.3711505 98.4932405,36.6661147 C98.893549,36.9610789 99.3605686,37.1787872 99.8943132,37.3192464 C100.428058,37.4597055 100.97584,37.529934 101.537677,37.529934 C101.987146,37.529934 102.44012,37.4877969 102.896612,37.4035214 C103.353104,37.3192459 103.763941,37.1752775 104.129135,36.9716118 C104.494328,36.767946 104.789288,36.4905434 105.014023,36.1393956 C105.238757,35.7882478 105.351123,35.3387853 105.351123,34.7909947 C105.351123,34.271296 105.214177,33.8499249 104.940282,33.5268689 C104.666387,33.203813 104.301199,32.940456 103.844706,32.7367903 C103.388214,32.5331246 102.872035,32.3680876 102.296152,32.2416744 C101.72027,32.1152612 101.133862,31.9853384 100.536911,31.8519022 C99.9399592,31.7184661 99.3535512,31.5639634 98.7776688,31.3883894 C98.2017864,31.2128155 97.6856068,30.9810615 97.2291147,30.6931203 C96.7726225,30.405179 96.4074343,30.0329679 96.133539,29.5764758 C95.8596437,29.1199836 95.7226981,28.5476213 95.7226981,27.8593716 C95.7226981,27.1008923 95.8772008,26.4442557 96.1862109,25.8894422 C96.4952209,25.3346286 96.9060577,24.8781433 97.4187335,24.5199726 C97.9314093,24.1618018 98.514306,23.8949335 99.1674409,23.7193595 C99.8205758,23.5437856 100.491258,23.456 101.179508,23.456 C101.952033,23.456 102.668364,23.5472971 103.328522,23.7298939 C103.98868,23.9124908 104.568065,24.2004277 105.066695,24.5937132 C105.565325,24.9869988 105.958604,25.4821098 106.246545,26.0790611 C106.534487,26.6760123 106.692501,27.3888317 106.720593,28.2175405 L104.824404,28.2175405 Z M111.966715,27.9647154 L114.136797,27.9647154 L114.136797,29.5448726 L111.966715,29.5448726 L111.966715,36.3079457 C111.966715,36.5186344 111.984272,36.6871828 112.019387,36.813596 C112.054501,36.9400093 112.121218,37.0383292 112.21954,37.1085587 C112.317861,37.1787883 112.454807,37.2244368 112.630381,37.2455057 C112.805955,37.2665746 113.034197,37.2771088 113.315116,37.2771088 L114.136797,37.2771088 L114.136797,38.8572661 L112.767328,38.8572661 C112.303813,38.8572661 111.907022,38.8256633 111.576943,38.7624567 C111.246864,38.6992501 110.979995,38.583373 110.77633,38.4148221 C110.572664,38.2462711 110.421673,38.0074942 110.323351,37.6984841 C110.22503,37.389474 110.17587,36.9821487 110.17587,36.4764958 L110.17587,29.5448726 L108.321819,29.5448726 L108.321819,27.9647154 L110.17587,27.9647154 L110.17587,24.699057 L111.966715,24.699057 L111.966715,27.9647154 Z M115.527336,33.4215251 C115.527336,32.6209081 115.639701,31.8729745 115.864436,31.1777018 C116.089171,30.4824291 116.426267,29.878464 116.875737,29.3657882 C117.325206,28.8531123 117.880011,28.4492984 118.540169,28.1543343 C119.200327,27.8593701 119.958795,27.7118902 120.815595,27.7118902 C121.686442,27.7118902 122.448421,27.8593701 123.101556,28.1543343 C123.754691,28.4492984 124.305985,28.8531123 124.755454,29.3657882 C125.204923,29.878464 125.54202,30.4824291 125.766755,31.1777018 C125.991489,31.8729745 126.103855,32.6209081 126.103855,33.4215251 C126.103855,34.2221421 125.991489,34.9665643 125.766755,35.654814 C125.54202,36.3430638 125.204923,36.9435175 124.755454,37.4561933 C124.305985,37.9688691 123.754691,38.3691716 123.101556,38.6571128 C122.448421,38.9450541 121.686442,39.0890225 120.815595,39.0890225 C119.958795,39.0890225 119.200327,38.9450541 118.540169,38.6571128 C117.880011,38.3691716 117.325206,37.9688691 116.875737,37.4561933 C116.426267,36.9435175 116.089171,36.3430638 115.864436,35.654814 C115.639701,34.9665643 115.527336,34.2221421 115.527336,33.4215251 Z M117.423524,33.4215251 C117.423524,34.081683 117.51131,34.6680911 117.686884,35.1807669 C117.862458,35.6934427 118.104746,36.1218366 118.413756,36.4659614 C118.722766,36.8100863 119.084443,37.0734432 119.498798,37.2560401 C119.913152,37.4386369 120.35208,37.529934 120.815595,37.529934 C121.27911,37.529934 121.718039,37.4386369 122.132393,37.2560401 C122.546748,37.0734432 122.908424,36.8100863 123.217434,36.4659614 C123.526444,36.1218366 123.768733,35.6934427 123.944307,35.1807669 C124.119881,34.6680911 124.207666,34.081683 124.207666,33.4215251 C124.207666,32.7613672 124.119881,32.1749592 123.944307,31.6622834 C123.768733,31.1496076 123.526444,30.7177022 123.217434,30.3665544 C122.908424,30.0154066 122.546748,29.7485383 122.132393,29.5659414 C121.718039,29.3833445 121.27911,29.2920475 120.815595,29.2920475 C120.35208,29.2920475 119.913152,29.3833445 119.498798,29.5659414 C119.084443,29.7485383 118.722766,30.0154066 118.413756,30.3665544 C118.104746,30.7177022 117.862458,31.1496076 117.686884,31.6622834 C117.51131,32.1749592 117.423524,32.7613672 117.423524,33.4215251 Z M128.147525,27.9647154 L129.833026,27.9647154 L129.833026,30.2612106 L129.875164,30.2612106 C130.310587,29.3763181 130.844324,28.723193 131.47639,28.3018156 C132.108456,27.8804382 132.909061,27.6837984 133.878229,27.7118902 L133.878229,29.6080789 C133.161887,29.6080789 132.550899,29.7063988 132.045246,29.9030416 C131.539593,30.0996844 131.132268,30.3876213 130.823258,30.7668609 C130.514248,31.1461006 130.289517,31.6060973 130.149058,32.1468649 C130.008598,32.6876326 129.93837,33.3091549 129.93837,34.0114505 L129.93837,38.8572661 L128.147525,38.8572661 L128.147525,27.9647154 Z M144.138717,35.4019889 C143.899936,36.6239833 143.373222,37.5439768 142.558559,38.1619969 C141.743896,38.7800171 140.71856,39.0890225 139.48252,39.0890225 C138.611673,39.0890225 137.856717,38.9485655 137.217628,38.6676472 C136.578539,38.386729 136.041291,37.9934493 135.605867,37.4877965 C135.170444,36.9821436 134.843881,36.3781784 134.62617,35.6758828 C134.408458,34.9735872 134.285558,34.2080964 134.257466,33.3793876 C134.257466,32.5506788 134.383878,31.7922109 134.636704,31.1039611 C134.889531,30.4157114 135.244185,29.8187691 135.700677,29.3131162 C136.157169,28.8074634 136.697928,28.4141837 137.322972,28.1332655 C137.948015,27.8523472 138.632743,27.7118902 139.377176,27.7118902 C140.346344,27.7118902 141.15046,27.9120415 141.789549,28.31235 C142.428638,28.7126585 142.941307,29.2218152 143.327569,29.8398353 C143.713832,30.4578555 143.9807,31.1320492 144.128182,31.8624366 C144.275664,32.5928241 144.335358,33.2880863 144.307267,33.9482442 L136.153655,33.9482442 C136.139609,34.4258052 136.195792,34.8787791 136.322205,35.3071795 C136.448618,35.7355798 136.652281,36.1148137 136.933199,36.4448927 C137.214118,36.7749716 137.572283,37.0383285 138.007706,37.2349713 C138.44313,37.4316141 138.955798,37.529934 139.545726,37.529934 C140.304205,37.529934 140.925728,37.3543627 141.410312,37.0032149 C141.894896,36.6520671 142.214435,36.1183304 142.36894,35.4019889 L144.138717,35.4019889 Z M142.411078,32.3680869 C142.382986,31.9467096 142.288178,31.5464071 142.12665,31.1671674 C141.965122,30.7879278 141.747413,30.4613652 141.473518,30.1874699 C141.199623,29.9135746 140.876572,29.6958663 140.504355,29.5343383 C140.132138,29.3728103 139.721301,29.2920475 139.271832,29.2920475 C138.808317,29.2920475 138.390457,29.3728103 138.018241,29.5343383 C137.646024,29.6958663 137.326484,29.9170861 137.059612,30.1980043 C136.79274,30.4789226 136.582054,30.8054851 136.427549,31.1777018 C136.273044,31.5499185 136.181747,31.9467096 136.153655,32.3680869 L142.411078,32.3680869 Z" id="Imported-Layers" fill="#FFFFFF"></path>
                </g>
                <path d="M51.9829102,10.2495117 L54.6416016,10.2495117 C55.7910214,10.2495117 56.6879851,10.5896776 57.3325195,11.2700195 C57.977054,11.9503615 58.2993164,12.9010356 58.2993164,14.1220703 C58.2993164,15.3431051 57.9779492,16.2946743 57.3352051,16.9768066 C56.692461,17.658939 55.7946021,18 54.6416016,18 L51.9829102,18 L51.9829102,10.2495117 Z M52.949707,11.1196289 L52.949707,17.1298828 L54.5771484,17.1298828 C55.4436892,17.1298828 56.1159644,16.8667019 56.5939941,16.340332 C57.0720239,15.8139622 57.3110352,15.0781297 57.3110352,14.1328125 C57.3110352,13.1839145 57.0702335,12.4445013 56.588623,11.9145508 C56.1070126,11.3846002 55.4365277,11.1196289 54.5771484,11.1196289 L52.949707,11.1196289 Z M62.6954102,18.1020508 C61.8718383,18.1020508 61.2210473,17.834394 60.7430176,17.2990723 C60.2649879,16.7637506 60.0259766,16.032394 60.0259766,15.1049805 C60.0259766,14.1739862 60.2649879,13.4417344 60.7430176,12.9082031 C61.2210473,12.3746718 61.8718383,12.1079102 62.6954102,12.1079102 C63.518982,12.1079102 64.169773,12.3746718 64.6478027,12.9082031 C65.1258325,13.4417344 65.3648438,14.1739862 65.3648438,15.1049805 C65.3648438,16.032394 65.1258325,16.7637506 64.6478027,17.2990723 C64.169773,17.834394 63.518982,18.1020508 62.6954102,18.1020508 Z M62.6954102,17.2695312 C63.2432645,17.2695312 63.6657863,17.0797545 63.9629883,16.7001953 C64.2601903,16.3206361 64.4087891,15.7889032 64.4087891,15.1049805 C64.4087891,14.417477 64.2601903,13.8848489 63.9629883,13.5070801 C63.6657863,13.1293113 63.2432645,12.9404297 62.6954102,12.9404297 C62.1475559,12.9404297 61.725034,13.1293113 61.427832,13.5070801 C61.13063,13.8848489 60.9820313,14.417477 60.9820313,15.1049805 C60.9820313,15.7889032 61.13063,16.3206361 61.427832,16.7001953 C61.725034,17.0797545 62.1475559,17.2695312 62.6954102,17.2695312 Z M74.3478516,12.2099609 L73.4186524,12.2099609 L72.2799805,16.8398438 L72.194043,16.8398438 L70.8996094,12.2099609 L70.0133789,12.2099609 L68.7189453,16.8398438 L68.6330078,16.8398438 L67.4943359,12.2099609 L66.5597656,12.2099609 L68.1818359,18 L69.1164063,18 L70.4054688,13.5205078 L70.4914063,13.5205078 L71.7858399,18 L72.7257813,18 L72.8895996,17.4145508 C72.9988124,17.0242494 73.1339836,16.5417509 73.2951172,15.967041 L73.7785156,14.2429199 C73.9396493,13.66821 74.0748204,13.1857116 74.1840332,12.7954102 L74.3478516,12.2099609 Z M76.0476563,18 L76.9714844,18 L76.9714844,14.5732422 C76.9714844,14.0647761 77.1093411,13.6655288 77.3850586,13.3754883 C77.6607761,13.0854478 78.0295876,12.9404297 78.4915039,12.9404297 C78.9534203,12.9404297 79.2962717,13.065754 79.5200684,13.3164062 C79.7438651,13.5670585 79.8557617,13.9537734 79.8557617,14.4765625 L79.8557617,18 L80.7795899,18 L80.7795899,14.2509766 C80.7795899,13.5634731 80.6050311,13.0344257 80.2559082,12.6638184 C79.9067854,12.293211 79.4063835,12.1079102 78.7546875,12.1079102 C78.3106749,12.1079102 77.9463393,12.1974275 77.6616699,12.3764648 C77.3770005,12.5555022 77.1612638,12.8043604 77.0144531,13.1230469 L76.9285156,13.1230469 L76.9285156,12.2099609 L76.0476563,12.2099609 L76.0476563,18 Z M82.9842774,18 L83.9081055,18 L83.9081055,9.91113281 L82.9842774,9.91113281 L82.9842774,18 Z M88.5458985,18.1020508 C87.7223266,18.1020508 87.0715356,17.834394 86.5935059,17.2990723 C86.1154762,16.7637506 85.8764649,16.032394 85.8764649,15.1049805 C85.8764649,14.1739862 86.1154762,13.4417344 86.5935059,12.9082031 C87.0715356,12.3746718 87.7223266,12.1079102 88.5458985,12.1079102 C89.3694703,12.1079102 90.0202613,12.3746718 90.498291,12.9082031 C90.9763208,13.4417344 91.2153321,14.1739862 91.2153321,15.1049805 C91.2153321,16.032394 90.9763208,16.7637506 90.498291,17.2990723 C90.0202613,17.834394 89.3694703,18.1020508 88.5458985,18.1020508 Z M88.5458985,17.2695312 C89.0937528,17.2695312 89.5162746,17.0797545 89.8134766,16.7001953 C90.1106786,16.3206361 90.2592774,15.7889032 90.2592774,15.1049805 C90.2592774,14.417477 90.1106786,13.8848489 89.8134766,13.5070801 C89.5162746,13.1293113 89.0937528,12.9404297 88.5458985,12.9404297 C87.9980442,12.9404297 87.5755223,13.1293113 87.2783203,13.5070801 C86.9811183,13.8848489 86.8325196,14.417477 86.8325196,15.1049805 C86.8325196,15.7889032 86.9811183,16.3206361 87.2783203,16.7001953 C87.5755223,17.0797545 87.9980442,17.2695312 88.5458985,17.2695312 Z M94.9131836,17.2910156 C95.389423,17.2910156 95.7841944,17.1522638 96.0975098,16.8747559 C96.4108252,16.597248 96.5674805,16.2526062 96.5674805,15.8408203 L96.5674805,15.309082 L95.0098633,15.4111328 C94.164807,15.4684248 93.7422852,15.7835258 93.7422852,16.3564453 C93.7422852,16.6500666 93.8532867,16.8792309 94.075293,17.0439453 C94.2972993,17.2086597 94.5765934,17.2910156 94.9131836,17.2910156 Z M94.7413086,18.1020508 C94.1791313,18.1020508 93.712746,17.9471858 93.3421387,17.6374512 C92.9715314,17.3277166 92.7862305,16.9078803 92.7862305,16.3779297 C92.7862305,15.3180286 93.4898367,14.746908 94.8970703,14.6645508 L96.5674805,14.5625 L96.5674805,14.0361328 C96.5674805,13.2984989 96.1306359,12.9296875 95.2569336,12.9296875 C94.9096012,12.9296875 94.6213553,12.9923496 94.3921875,13.1176758 C94.1630197,13.2430019 94.0162113,13.4202462 93.9517578,13.6494141 L93.0171875,13.6494141 C93.0780602,13.1839169 93.3179667,12.8106297 93.7369141,12.529541 C94.1558615,12.2484524 94.6732717,12.1079102 95.2891602,12.1079102 C95.9945674,12.1079102 96.5379376,12.2788883 96.9192871,12.6208496 C97.3006367,12.962811 97.4913086,13.4345673 97.4913086,14.0361328 L97.4913086,18 L96.6104493,18 L96.6104493,17.1459961 L96.5245118,17.1459961 C96.3383129,17.4539403 96.0912451,17.6902661 95.7833008,17.8549805 C95.4753566,18.0196948 95.1280293,18.1020508 94.7413086,18.1020508 Z M101.806836,18.1020508 C101.065621,18.1020508 100.474807,17.8299181 100.034375,17.2856445 C99.5939432,16.741371 99.3737305,16.0144902 99.3737305,15.1049805 C99.3737305,14.1954707 99.5957335,13.46859 100.039746,12.9243164 C100.483759,12.3800429 101.072783,12.1079102 101.806836,12.1079102 C102.21146,12.1079102 102.574006,12.1974275 102.894482,12.3764648 C103.214959,12.5555022 103.457551,12.8043604 103.622266,13.1230469 L103.702832,13.1230469 L103.702832,9.91113281 L104.62666,9.91113281 L104.62666,18 L103.745801,18 L103.745801,17.0761719 L103.659863,17.0761719 C103.477245,17.3984391 103.223016,17.6499828 102.897168,17.8308105 C102.57132,18.0116383 102.20788,18.1020508 101.806836,18.1020508 Z M102.02168,12.9404297 C101.49531,12.9404297 101.08174,13.132892 100.780957,13.5178223 C100.480174,13.9027526 100.329785,14.4318 100.329785,15.1049805 C100.329785,15.7817417 100.479279,16.3116843 100.778272,16.6948242 C101.077264,17.0779642 101.491729,17.2695312 102.02168,17.2695312 C102.54805,17.2695312 102.96341,17.0761738 103.267773,16.6894531 C103.572137,16.3027324 103.724316,15.7745802 103.724316,15.1049805 C103.724316,14.4425423 103.571242,13.9161803 103.265088,13.5258789 C102.958934,13.1355775 102.544469,12.9404297 102.02168,12.9404297 Z M112.833398,18.1020508 C112.009827,18.1020508 111.359036,17.834394 110.881006,17.2990723 C110.402976,16.7637506 110.163965,16.032394 110.163965,15.1049805 C110.163965,14.1739862 110.402976,13.4417344 110.881006,12.9082031 C111.359036,12.3746718 112.009827,12.1079102 112.833398,12.1079102 C113.65697,12.1079102 114.307761,12.3746718 114.785791,12.9082031 C115.263821,13.4417344 115.502832,14.1739862 115.502832,15.1049805 C115.502832,16.032394 115.263821,16.7637506 114.785791,17.2990723 C114.307761,17.834394 113.65697,18.1020508 112.833398,18.1020508 Z M112.833398,17.2695312 C113.381253,17.2695312 113.803775,17.0797545 114.100977,16.7001953 C114.398179,16.3206361 114.546777,15.7889032 114.546777,15.1049805 C114.546777,14.417477 114.398179,13.8848489 114.100977,13.5070801 C113.803775,13.1293113 113.381253,12.9404297 112.833398,12.9404297 C112.285544,12.9404297 111.863022,13.1293113 111.56582,13.5070801 C111.268618,13.8848489 111.12002,14.417477 111.12002,15.1049805 C111.12002,15.7889032 111.268618,16.3206361 111.56582,16.7001953 C111.863022,17.0797545 112.285544,17.2695312 112.833398,17.2695312 Z M117.417481,18 L118.341309,18 L118.341309,14.5732422 C118.341309,14.0647761 118.479165,13.6655288 118.754883,13.3754883 C119.0306,13.0854478 119.399412,12.9404297 119.861328,12.9404297 C120.323245,12.9404297 120.666096,13.065754 120.889893,13.3164062 C121.113689,13.5670585 121.225586,13.9537734 121.225586,14.4765625 L121.225586,18 L122.149414,18 L122.149414,14.2509766 C122.149414,13.5634731 121.974855,13.0344257 121.625732,12.6638184 C121.27661,12.293211 120.776208,12.1079102 120.124512,12.1079102 C119.680499,12.1079102 119.316164,12.1974275 119.031494,12.3764648 C118.746825,12.5555022 118.531088,12.8043604 118.384277,13.1230469 L118.29834,13.1230469 L118.29834,12.2099609 L117.417481,12.2099609 L117.417481,18 Z M128.256055,10.7114258 L128.256055,12.2099609 L127.321484,12.2099609 L127.321484,12.9833984 L128.256055,12.9833984 L128.256055,16.4960938 C128.256055,17.0475288 128.385855,17.4431954 128.645459,17.6831055 C128.905063,17.9230155 129.332061,18.0429688 129.926465,18.0429688 C130.019564,18.0429688 130.110872,18.0384929 130.200391,18.029541 C130.289909,18.0205891 130.379427,18.0071615 130.468945,17.9892578 L130.468945,17.2104492 C130.383007,17.2176107 130.310498,17.2229818 130.251416,17.2265625 C130.192334,17.2301432 130.121615,17.2319336 130.039258,17.2319336 C129.738475,17.2319336 129.520053,17.1549487 129.383984,17.0009766 C129.247916,16.8470044 129.179883,16.5999366 129.179883,16.2597656 L129.179883,12.9833984 L130.468945,12.9833984 L130.468945,12.2099609 L129.179883,12.2099609 L129.179883,10.7114258 L128.256055,10.7114258 Z M132.383594,18 L133.307422,18 L133.307422,14.5732422 C133.307422,14.0826798 133.445279,13.6879084 133.720996,13.388916 C133.996714,13.0899236 134.394171,12.9404297 134.913379,12.9404297 C135.35023,12.9404297 135.682339,13.0684395 135.909717,13.3244629 C136.137094,13.5804863 136.250781,13.9645157 136.250781,14.4765625 L136.250781,18 L137.174609,18 L137.174609,14.2509766 C137.174609,13.5706346 136.99468,13.0433775 136.634815,12.6691895 C136.274949,12.2950014 135.78887,12.1079102 135.176563,12.1079102 C134.73255,12.1079102 134.361053,12.1974275 134.062061,12.3764648 C133.763068,12.5555022 133.54017,12.8043604 133.393359,13.1230469 L133.307422,13.1230469 L133.307422,9.91113281 L132.383594,9.91113281 L132.383594,18 Z M141.635156,12.9243164 C141.17324,12.9243164 140.793686,13.0800766 140.496484,13.3916016 C140.199282,13.7031266 140.03278,14.1149063 139.996973,14.6269531 L143.187402,14.6269531 C143.17666,14.1149063 143.029852,13.7031266 142.746973,13.3916016 C142.464094,13.0800766 142.093492,12.9243164 141.635156,12.9243164 Z M143.160547,16.5014648 L144.084375,16.5014648 C143.944726,16.9991887 143.661851,17.3903794 143.235742,17.6750488 C142.809633,17.9597182 142.279691,18.1020508 141.645899,18.1020508 C140.843811,18.1020508 140.208238,17.8326036 139.73916,17.2937012 C139.270082,16.7547987 139.035547,16.0270228 139.035547,15.1103516 C139.035547,14.2008418 139.271873,13.4730659 139.744531,12.927002 C140.21719,12.380938 140.850973,12.1079102 141.645899,12.1079102 C142.426501,12.1079102 143.04059,12.3684056 143.488184,12.8894043 C143.935777,13.410403 144.15957,14.1202755 144.15957,15.019043 L144.15957,15.3735352 L139.996973,15.3735352 L139.996973,15.4165039 C140.022038,15.9894234 140.184064,16.4441715 140.483057,16.7807617 C140.782049,17.1173519 141.176821,17.2856445 141.667383,17.2856445 C142.039781,17.2856445 142.351301,17.2185065 142.601953,17.0842285 C142.852606,16.9499505 143.038802,16.7556979 143.160547,16.5014648 Z" id="Download-on-the" fill="#FFFFFF"></path>
            </g>
        </g>
    </g>
</svg>