<?xml version="1.0" encoding="UTF-8"?>
<svg width="472px" height="399px" viewBox="0 0 472 399" version="1.1" xmlns="http://www.w3.org/2000/svg" xmlns:xlink="http://www.w3.org/1999/xlink">
    <!-- Generator: Sketch 45 (43475) - http://www.bohemiancoding.com/sketch -->
    <title>Group</title>
    <desc>Created with Sketch.</desc>
    <defs></defs>
    <g id="Page-1" stroke="none" stroke-width="1" fill="none" fill-rule="evenodd">
        <g id="Artboard" transform="translate(-1011.000000, -640.000000)" fill="#66CCFF">
            <g id="Group-2" transform="translate(854.000000, 640.000000)">
                <g id="Group" transform="translate(156.803519, 0.000000)">
                    <g transform="translate(126.714719, 113.876797)" id="Shape" opacity="0.75">
                        <path d="M49.0871505,0.732407607 C34.6310143,32.773742 24.9864846,66.9763382 20.5325215,101.823837 L20.2968558,101.787876 C14.8185166,87.7534594 8.22106149,75.1311156 0.140925716,62.6885771 C12.6264704,39.1268686 29.2793898,18.1543588 49.0871505,0.732407607 L49.0871505,0.732407607 Z"></path>
                        <path d="M20.2968558,101.787876 L0.140925716,62.6885771 C8.21987724,75.1311156 14.8185166,87.7534594 20.2968558,101.787876 L20.2968558,101.787876 Z"></path>
                    </g>
                    <path d="M352.065596,114.681126 C387.119388,153.55387 408.485621,205.211981 408.485621,261.90944 C408.485621,297.527704 400.051395,331.158519 385.089584,360.877966" id="Shape" opacity="0.75"></path>
                    <path d="M294.294343,126.011268 C284.768238,143.704126 276.900083,162.478215 270.772775,181.898404 L271.01673,181.977518 L286.060255,239.591985 C289.354837,187.139134 303.915187,137.798116 327.37399,94.0226767 C313.570375,101.412681 302.077232,112.331668 294.294343,126.011268 L294.294343,126.011268 Z" id="Shape" opacity="0.75"></path>
                    <path d="M472.034829,52.3221926 C472.034829,23.6983607 448.994067,0.50705142 420.715368,0.50705142 C406.901095,0.50705142 397.639078,2.52207137 388.427984,11.5255305 C387.784936,12.1632406 387.154915,12.8177325 386.508315,13.4722244 C369.099844,31.2406008 353.558935,50.8765566 340.191125,72.0216797 C338.306983,69.1723623 336.331655,66.3398269 334.344484,63.5708226 C328.381786,55.2374385 318.046839,41.2869316 311.107136,33.0925971 C311.056213,33.0206749 311.004106,32.9727268 310.973316,32.9211825 C301.597611,20.3467868 286.703302,12.2483485 269.972222,12.2483485 C255.614379,12.2483485 241.41404,18.1004171 232.128338,27.7224071 C215.278834,46.5528344 200.70072,67.2256685 188.540844,89.2074863 C178.651174,77.1677122 165.799696,61.5414183 155.596201,52.5043954 C152.115691,49.4369141 144.118453,44.9969178 140.170164,43.5680637 C134.292733,41.4211864 127.51764,40.7475152 120.892947,40.7475152 C113.606259,40.7475152 106.711557,42.2914448 100.485956,45.060449 C94.2437762,47.8450364 88.6588546,51.8343204 84.003569,56.7765734 C18.8733876,134.645527 -11.8377601,241.381649 4.82226482,342.809914 C5.03898252,344.114103 5.27109546,345.423086 5.48426041,346.730871 C5.48426041,346.746455 5.50439265,346.782416 5.50439265,346.794403 C5.86322032,348.103387 6.26586522,349.395588 6.74548635,350.688989 C14.0641496,370.236241 32.884246,384.1388 54.7656279,384.1388 C83.0253787,384.1388 105.952453,360.943894 105.952453,332.328453 C105.952453,329.376048 105.734551,326.96186 105.275062,324.14251 L105.440857,324.916872 C102.39023,310.310674 101.313747,295.187836 101.313747,279.677816 C101.313747,242.407739 110.556816,207.296526 126.858013,176.564175 C139.343558,153.002466 155.995293,132.029957 175.804238,114.608005 C161.348102,146.64934 151.703572,180.851936 147.249609,215.699435 C140.687681,266.803745 145.244674,319.300948 162.023124,368.460962 C161.738904,367.78729 161.462974,367.10403 161.178754,366.430359 C170.354321,390.742455 198.732497,404.341742 223.131593,396.997288 C236.646251,392.939678 248.21045,382.998833 254.472762,370.220658 C261.729844,355.384309 259.356608,338.935705 257.425097,323.137997 C251.658985,276.377787 256.459933,227.367611 270.773959,181.897205 C276.902452,162.477016 284.769422,143.702928 294.295527,126.01007 C302.078416,112.33047 313.57156,101.411483 327.375174,94.021478 C327.405965,93.9471585 327.442676,93.8824285 327.469914,93.8188972 L327.591892,93.9016077 C327.520837,93.9339727 325.334712,93.985517 325.270762,94.021478 C301.810776,137.799315 285.40418,187.140333 281.851431,239.593184 L281.851431,239.609966 L281.851431,239.657914 C281.851431,247.153404 283.261872,254.713625 283.261872,262.328986 C283.261872,283.2056 285.215885,303.659071 288.645472,323.562337 C289.859328,330.60352 292.024136,338.602466 293.584977,345.492611 C300.074666,366.568209 319.765186,380.786027 342.727787,380.786027 C367.857566,380.786027 390.91254,362.861819 395.239788,338.686375 C396.683389,323.562337 395.32387,309.86236 395.32387,295.947814 C395.32387,214.461174 420.27009,140.998653 466.100554,81.1785728 C471.996933,73.2107932 472.034829,63.0026374 472.034829,52.3221926 L472.034829,52.3221926 Z" id="Shape"></path>
                </g>
            </g>
        </g>
    </g>
</svg>