<svg width="158" height="50" viewBox="0 0 158 50" xmlns="http://www.w3.org/2000/svg"><title>Group</title><g fill="none" fill-rule="evenodd"><rect stroke="#FFF" x=".5" y=".5" width="157" height="49" rx="10"/><path d="M31.689 17.249c3.242 0 5.316 3.137 5.316 3.137s-3.163 1.717-3.163 5.445c0 4.424 3.974 5.711 3.974 5.711s-3.137 7.442-6.659 7.442c-1.98 0-2.112-1.139-4.744-1.139-2.286 0-3.056 1.14-4.797 1.14C18.293 38.984 14 31.73 14 25.83c0-6.128 4.346-8.582 7.07-8.582 2.393 0 3.39 1.408 5.316 1.408 1.622 0 2.898-1.408 5.303-1.408zM31.13 11c.478 3.004-2.246 6.718-5.502 6.598-.479-3.822 3.03-6.396 5.502-6.598zm24.582 12.814h2.212l5.879 15.043H61.59l-1.643-4.53h-6.363l-1.685 4.53h-2.044l5.857-15.043zm-1.496 8.828h5.099l-2.507-7.016h-.042l-2.55 7.016zm10.83-4.677h1.79v1.475h.043a2.681 2.681 0 0 1 1.39-1.317 5.19 5.19 0 0 1 2.086-.411c.843 0 1.577.154 2.202.463a4.478 4.478 0 0 1 1.559 1.254c.414.527.727 1.134.937 1.822.21.689.316 1.42.316 2.192 0 .772-.102 1.502-.305 2.19a5.159 5.159 0 0 1-.927 1.802 4.37 4.37 0 0 1-1.56 1.212c-.624.295-1.351.442-2.18.442a5.383 5.383 0 0 1-1.875-.358 3.828 3.828 0 0 1-.917-.516 2.885 2.885 0 0 1-.726-.811h-.043v5.604h-1.79V27.965zm8.427 5.351c0-.505-.067-1-.2-1.485a4.009 4.009 0 0 0-.611-1.296 2.994 2.994 0 0 0-1.054-.906c-.428-.225-.93-.337-1.506-.337-.604 0-1.117.12-1.538.358a3.083 3.083 0 0 0-1.032.938 3.92 3.92 0 0 0-.58 1.317c-.12.491-.179.99-.179 1.495 0 .534.063 1.05.19 1.549.126.499.326.938.6 1.317.274.379.629.685 1.064.916.436.232.962.348 1.58.348.618 0 1.135-.12 1.549-.358a2.88 2.88 0 0 0 1-.948c.254-.394.436-.843.549-1.349a7.166 7.166 0 0 0 .168-1.559zm4.066-5.351h1.791v1.475h.042a2.681 2.681 0 0 1 1.39-1.317 5.19 5.19 0 0 1 2.087-.411c.842 0 1.576.154 2.201.463a4.478 4.478 0 0 1 1.56 1.254c.414.527.726 1.134.937 1.822.21.689.316 1.42.316 2.192 0 .772-.102 1.502-.305 2.19a5.159 5.159 0 0 1-.927 1.802 4.37 4.37 0 0 1-1.56 1.212c-.625.295-1.351.442-2.18.442a5.383 5.383 0 0 1-1.875-.358 3.828 3.828 0 0 1-.917-.516 2.885 2.885 0 0 1-.727-.811h-.042v5.604h-1.79V27.965zm8.428 5.351c0-.505-.067-1-.2-1.485a4.009 4.009 0 0 0-.611-1.296 2.994 2.994 0 0 0-1.054-.906c-.428-.225-.93-.337-1.506-.337-.604 0-1.117.12-1.538.358a3.083 3.083 0 0 0-1.033.938 3.92 3.92 0 0 0-.579 1.317c-.12.491-.179.99-.179 1.495 0 .534.063 1.05.19 1.549.126.499.326.938.6 1.317.274.379.629.685 1.064.916.435.232.962.348 1.58.348.618 0 1.134-.12 1.549-.358a2.88 2.88 0 0 0 1-.948 4.12 4.12 0 0 0 .548-1.349 7.166 7.166 0 0 0 .169-1.559zm18.856-5.098c-.112-1.082-.502-1.865-1.169-2.35-.667-.484-1.52-.726-2.56-.726a6.12 6.12 0 0 0-1.243.126 3.3 3.3 0 0 0-1.085.421 2.21 2.21 0 0 0-.758.79c-.19.33-.285.741-.285 1.233 0 .463.137.84.411 1.127.274.288.64.523 1.096.706.456.182.972.333 1.548.453.576.12 1.162.25 1.76.39.596.14 1.183.305 1.759.495.576.19 1.092.446 1.548.769.457.323.822.73 1.096 1.222.274.491.41 1.11.41 1.854 0 .8-.178 1.485-.537 2.054a4.422 4.422 0 0 1-1.38 1.39 6.006 6.006 0 0 1-1.885.78 9.145 9.145 0 0 1-4.467-.074 5.906 5.906 0 0 1-1.98-.958 4.545 4.545 0 0 1-1.349-1.644c-.33-.667-.495-1.457-.495-2.37h1.896c0 .632.123 1.176.37 1.633.245.456.568.832.968 1.127.4.295.868.513 1.401.653a6.43 6.43 0 0 0 1.644.21c.45 0 .902-.041 1.359-.125a4.004 4.004 0 0 0 1.232-.432c.365-.204.66-.481.885-.833.225-.35.337-.8.337-1.348 0-.52-.137-.941-.41-1.264-.275-.323-.64-.587-1.096-.79a8.02 8.02 0 0 0-1.549-.495 470.67 470.67 0 0 1-1.76-.39 23.932 23.932 0 0 1-1.758-.464 6.367 6.367 0 0 1-1.549-.695 3.33 3.33 0 0 1-1.095-1.117c-.274-.456-.411-1.028-.411-1.717 0-.758.154-1.415.463-1.97a4.052 4.052 0 0 1 1.233-1.369 5.532 5.532 0 0 1 1.748-.8 7.717 7.717 0 0 1 2.013-.264c.772 0 1.488.091 2.149.274.66.182 1.24.47 1.738.864a4.17 4.17 0 0 1 1.18 1.485c.287.597.446 1.31.474 2.139h-1.897zm7.143-.253h2.17v1.58h-2.17v6.763c0 .21.017.38.052.506a.52.52 0 0 0 .2.295c.099.07.236.115.411.137.176.02.404.031.685.031h.822v1.58h-1.37a6.43 6.43 0 0 1-1.19-.095c-.33-.063-.597-.179-.8-.347-.204-.169-.355-.408-.454-.717-.098-.309-.147-.716-.147-1.222v-6.931h-1.854v-1.58h1.854v-3.266h1.79v3.266zm3.56 5.457c0-.801.113-1.549.337-2.244a5.07 5.07 0 0 1 1.012-1.812 4.764 4.764 0 0 1 1.664-1.212c.66-.295 1.419-.442 2.276-.442.87 0 1.632.147 2.286.442a4.788 4.788 0 0 1 1.653 1.212 5.07 5.07 0 0 1 1.012 1.812c.224.695.337 1.443.337 2.244 0 .8-.113 1.545-.337 2.233a5.098 5.098 0 0 1-1.012 1.801c-.449.513-1 .913-1.653 1.201-.654.288-1.416.432-2.286.432-.857 0-1.616-.144-2.276-.432a4.652 4.652 0 0 1-1.664-1.2 5.098 5.098 0 0 1-1.012-1.802 7.155 7.155 0 0 1-.337-2.233zm1.897 0c0 .66.087 1.246.263 1.759.175.512.418.94.727 1.285.309.344.67.607 1.085.79a3.23 3.23 0 0 0 1.317.274 3.23 3.23 0 0 0 1.316-.274 3.154 3.154 0 0 0 1.085-.79 3.68 3.68 0 0 0 .727-1.285c.176-.513.264-1.1.264-1.76 0-.66-.088-1.246-.264-1.759a3.797 3.797 0 0 0-.727-1.295 3.095 3.095 0 0 0-1.085-.801 3.23 3.23 0 0 0-1.316-.274 3.23 3.23 0 0 0-1.317.274c-.415.183-.776.45-1.085.8a3.797 3.797 0 0 0-.727 1.296c-.176.513-.263 1.1-.263 1.76zm10.724-5.457h1.685v2.296h.042c.436-.885.97-1.538 1.601-1.96.632-.42 1.433-.617 2.402-.59v1.897c-.716 0-1.327.098-1.833.295a2.89 2.89 0 0 0-1.222.864c-.309.38-.533.84-.674 1.38-.14.54-.21 1.162-.21 1.864v4.846h-1.791V27.965zm15.99 7.437c-.238 1.222-.765 2.142-1.58 2.76-.814.618-1.84.927-3.075.927-.871 0-1.626-.14-2.265-.421a4.465 4.465 0 0 1-1.612-1.18 5.012 5.012 0 0 1-.98-1.812 8.731 8.731 0 0 1-.369-2.297c0-.828.127-1.587.38-2.275a5.438 5.438 0 0 1 1.064-1.79 4.828 4.828 0 0 1 1.622-1.18 4.953 4.953 0 0 1 2.054-.422c.97 0 1.773.2 2.413.6.639.4 1.151.91 1.538 1.528.386.618.653 1.292.8 2.022.148.73.207 1.426.18 2.086h-8.154c-.014.478.042.93.168 1.36.127.428.33.807.611 1.137.281.33.64.593 1.075.79.435.197.948.295 1.538.295.758 0 1.38-.176 1.864-.527.485-.35.804-.885.959-1.601h1.77zm-1.727-3.034a3.664 3.664 0 0 0-.284-1.2 3.07 3.07 0 0 0-.653-.98 3.064 3.064 0 0 0-2.202-.895 3.11 3.11 0 0 0-1.254.241 2.895 2.895 0 0 0-.958.664c-.267.28-.478.607-.632.98a3.73 3.73 0 0 0-.274 1.19h6.257zM51.983 10.25h2.659c1.149 0 2.046.34 2.69 1.02.645.68.967 1.631.967 2.852 0 1.221-.321 2.173-.964 2.855-.643.682-1.54 1.023-2.693 1.023h-2.66v-7.75zm.967.87v6.01h1.627c.867 0 1.539-.263 2.017-.79.478-.526.717-1.262.717-2.207 0-.95-.24-1.688-.722-2.218s-1.152-.795-2.012-.795H52.95zm9.745 6.982c-.823 0-1.474-.268-1.952-.803s-.717-1.267-.717-2.194c0-.931.239-1.663.717-2.197.478-.533 1.129-.8 1.952-.8.824 0 1.475.267 1.953.8.478.534.717 1.266.717 2.197 0 .927-.24 1.659-.717 2.194-.478.535-1.129.803-1.953.803zm0-.832c.548 0 .97-.19 1.268-.57.297-.38.446-.911.446-1.595 0-.688-.149-1.22-.446-1.598-.297-.378-.72-.567-1.268-.567-.547 0-.97.19-1.267.567-.297.378-.446.91-.446 1.598 0 .684.149 1.216.446 1.595.297.38.72.57 1.267.57zm11.653-5.06h-.93l-1.138 4.63h-.086L70.9 12.21h-.887l-1.294 4.63h-.086l-1.139-4.63h-.934L68.182 18h.934l1.29-4.48h.085L71.786 18h.94l.164-.585.405-1.448.484-1.724.405-1.448.164-.585zm1.7 5.79h.923v-3.427c0-.508.138-.907.414-1.198.276-.29.645-.435 1.107-.435.461 0 .804.126 1.028.376.224.251.336.638.336 1.16V18h.924v-3.749c0-.688-.175-1.217-.524-1.587-.35-.37-.85-.556-1.501-.556-.444 0-.809.09-1.093.268a1.7 1.7 0 0 0-.648.747h-.085v-.913h-.881V18zm6.936 0h.924V9.911h-.924V18zm5.562.102c-.824 0-1.474-.268-1.952-.803-.479-.535-.718-1.267-.718-2.194 0-.931.24-1.663.718-2.197.478-.533 1.128-.8 1.952-.8.823 0 1.474.267 1.952.8.478.534.717 1.266.717 2.197 0 .927-.239 1.659-.717 2.194-.478.535-1.129.803-1.952.803zm0-.832c.548 0 .97-.19 1.267-.57.298-.38.446-.911.446-1.595 0-.688-.148-1.22-.446-1.598-.297-.378-.72-.567-1.267-.567-.548 0-.97.19-1.268.567-.297.378-.445.91-.445 1.598 0 .684.148 1.216.445 1.595.298.38.72.57 1.268.57zm6.367.021c.476 0 .871-.139 1.185-.416.313-.278.47-.622.47-1.034v-.532l-1.558.102c-.845.057-1.268.373-1.268.945 0 .294.111.523.333.688.222.165.502.247.838.247zm-.172.811c-.562 0-1.028-.155-1.399-.465-.37-.31-.556-.73-.556-1.26 0-1.059.704-1.63 2.111-1.712l1.67-.102v-.527c0-.738-.436-1.106-1.31-1.106-.347 0-.636.062-.865.188a.859.859 0 0 0-.44.531h-.935c.061-.465.301-.838.72-1.12.419-.28.936-.421 1.552-.421.706 0 1.249.17 1.63.513.382.342.572.814.572 1.415V18h-.88v-.854h-.086a1.904 1.904 0 0 1-.742.709 2.174 2.174 0 0 1-1.042.247zm7.066 0c-.741 0-1.332-.272-1.773-.816-.44-.545-.66-1.272-.66-2.181 0-.91.222-1.636.666-2.18.444-.545 1.033-.817 1.767-.817a2.2 2.2 0 0 1 1.087.268c.321.18.564.428.728.747h.08V9.911h.925V18h-.881v-.924h-.086a1.944 1.944 0 0 1-.763.755 2.22 2.22 0 0 1-1.09.271zm.215-5.162c-.527 0-.94.193-1.241.578-.3.385-.451.914-.451 1.587 0 .677.15 1.207.448 1.59.3.383.714.575 1.244.575.526 0 .941-.194 1.246-.58.304-.387.456-.915.456-1.585 0-.662-.153-1.189-.459-1.58-.306-.39-.72-.585-1.243-.585zm10.811 5.162c-.823 0-1.474-.268-1.952-.803s-.717-1.267-.717-2.194c0-.931.239-1.663.717-2.197.478-.533 1.129-.8 1.952-.8.824 0 1.475.267 1.953.8.478.534.717 1.266.717 2.197 0 .927-.24 1.659-.717 2.194-.478.535-1.129.803-1.953.803zm0-.832c.548 0 .97-.19 1.268-.57.297-.38.446-.911.446-1.595 0-.688-.149-1.22-.446-1.598-.297-.378-.72-.567-1.268-.567-.547 0-.97.19-1.267.567-.297.378-.446.91-.446 1.598 0 .684.149 1.216.446 1.595.297.38.72.57 1.267.57zm4.584.73h.924v-3.427c0-.508.138-.907.414-1.198.276-.29.644-.435 1.106-.435.462 0 .805.126 1.029.376.224.251.336.638.336 1.16V18h.923v-3.749c0-.688-.174-1.217-.523-1.587-.35-.37-.85-.556-1.501-.556-.445 0-.809.09-1.094.268a1.7 1.7 0 0 0-.647.747h-.086v-.913h-.88V18zm10.84-7.289v1.499h-.936v.773h.935v3.513c0 .552.13.947.39 1.187.26.24.686.36 1.28.36a2.752 2.752 0 0 0 .543-.054v-.779a9.907 9.907 0 0 1-.218.017c-.059.003-.13.005-.212.005-.3 0-.519-.077-.655-.231-.136-.154-.204-.401-.204-.741v-3.277h1.289v-.773h-1.29v-1.499h-.923zM132.383 18h.923v-3.427c0-.49.138-.885.414-1.184.276-.3.673-.449 1.192-.449.437 0 .77.128.997.384.227.256.34.64.34 1.153V18h.925v-3.749c0-.68-.18-1.208-.54-1.582-.36-.374-.846-.561-1.458-.561-.444 0-.816.09-1.115.268a1.66 1.66 0 0 0-.669.747h-.086V9.911h-.923V18zm9.251-5.076c-.462 0-.841.156-1.139.468-.297.311-.463.723-.499 1.235h3.19c-.01-.512-.157-.924-.44-1.235-.283-.312-.654-.468-1.112-.468zm1.526 3.577h.923c-.14.498-.422.89-.848 1.174-.426.285-.956.427-1.59.427-.802 0-1.438-.27-1.907-.808-.469-.54-.703-1.267-.703-2.184 0-.91.236-1.637.709-2.183.472-.546 1.106-.82 1.9-.82.782 0 1.396.261 1.843.782.448.521.672 1.231.672 2.13v.355h-4.163v.043c.025.572.187 1.027.486 1.364.299.336.694.505 1.184.505.373 0 .684-.067.935-.202.25-.134.437-.328.559-.583z" fill="#FFF"/></g></svg>