<svg width="472" height="399" viewBox="0 0 472 399" xmlns="http://www.w3.org/2000/svg"><title>Group</title><g fill="#6CF" fill-rule="evenodd"><g opacity=".75"><path d="M175.605 114.61c-14.456 32.04-24.1 66.243-28.554 101.09l-.236-.035c-5.478-14.035-12.076-26.657-20.156-39.1 12.486-23.561 29.139-44.534 48.946-61.956z"/><path d="M146.815 215.665l-20.156-39.1c8.08 12.443 14.678 25.065 20.156 39.1z"/></g><path d="M351.87 114.681c35.053 38.873 56.42 90.531 56.42 147.228 0 35.619-8.435 69.25-23.397 98.969m-90.795-234.867c-9.526 17.693-17.394 36.467-23.522 55.887l.244.08 15.044 57.614c3.294-52.453 17.855-101.794 41.314-145.57-13.804 7.39-25.297 18.31-33.08 31.99z" opacity=".75"/><path d="M471.838 52.322c0-28.624-23.04-51.815-51.32-51.815-13.813 0-23.075 2.015-32.286 11.019-.644.637-1.274 1.292-1.92 1.946a353.909 353.909 0 0 0-46.317 58.55 269.917 269.917 0 0 0-5.847-8.451c-5.963-8.334-16.298-22.284-23.237-30.478-.051-.072-.103-.12-.134-.172-9.376-12.574-24.27-20.673-41.001-20.673-14.358 0-28.558 5.852-37.844 15.474-16.85 18.83-31.428 39.504-43.588 61.485-9.89-12.04-22.74-27.666-32.944-36.703-3.48-3.067-11.478-7.507-15.426-8.936-5.878-2.147-12.653-2.82-19.278-2.82a50.053 50.053 0 0 0-20.407 4.312 51.402 51.402 0 0 0-16.482 11.717C18.677 134.646-12.034 241.382 4.626 342.81c.217 1.304.449 2.613.662 3.92 0 .016.02.052.02.064a46.502 46.502 0 0 0 1.241 3.895c7.319 19.547 26.139 33.45 48.02 33.45 28.26 0 51.187-23.195 51.187-51.81 0-2.953-.218-5.367-.677-8.186l.165.774c-3.05-14.606-4.127-29.73-4.127-45.24 0-37.27 9.243-72.38 25.545-103.113a219.333 219.333 0 0 1 48.946-61.956c-14.456 32.041-24.1 66.244-28.555 101.091-6.562 51.105-2.005 103.602 14.774 152.762-.285-.674-.56-1.357-.845-2.03 9.176 24.311 37.554 37.91 61.953 30.566 13.515-4.057 25.079-13.998 31.341-26.776 7.257-14.837 4.884-31.285 2.953-47.083-5.766-46.76-.966-95.77 13.348-141.24 6.129-19.421 13.996-38.195 23.522-55.888 7.783-13.68 19.276-24.599 33.08-31.989.03-.074.067-.139.094-.202l.122.083c-.07.032-2.257.084-2.32.12-23.46 43.777-39.867 93.118-43.42 145.571v.065c0 7.495 1.41 15.056 1.41 22.671 0 20.877 1.954 41.33 5.384 61.233 1.214 7.042 3.379 15.04 4.94 21.93 6.49 21.076 26.18 35.294 49.142 35.294 25.13 0 48.185-17.924 52.512-42.1 1.444-15.124.084-28.824.084-42.738 0-81.487 24.947-154.95 70.777-214.77 5.896-7.967 5.934-18.175 5.934-28.856z"/></g></svg>