<svg width="77" height="64" viewBox="0 0 77 64" xmlns="http://www.w3.org/2000/svg"><title>mean</title><g fill="none" fill-rule="evenodd"><path d="M28.574 18.376a56.49 56.49 0 0 0-4.641 16.208l-.039-.006a33.92 33.92 0 0 0-3.276-6.269 35.25 35.25 0 0 1 7.956-9.933z" fill-opacity=".751" fill="#FFF"/><path d="M23.894 34.578l-3.276-6.269a33.932 33.932 0 0 1 3.276 6.27z" fill="#00ACC1"/><path d="M57.223 18.387c5.697 6.233 9.17 14.515 9.17 23.606 0 5.71-1.37 11.103-3.803 15.868M47.833 20.204a51.406 51.406 0 0 0-3.823 8.96l.04.013 2.445 9.238a56.282 56.282 0 0 1 6.715-23.34c-2.244 1.185-4.112 2.936-5.377 5.129z" fill-opacity=".751" fill="#FFF"/><path d="M68.38.081c-2.245 0-3.75.323-5.247 1.767-.105.102-.207.207-.312.312a56.872 56.872 0 0 0-7.528 9.387 43.265 43.265 0 0 0-.95-1.354c-.97-1.337-2.65-3.573-3.777-4.887-1.546-2.044-3.967-3.342-6.686-3.342-2.334 0-4.642.938-6.151 2.48a53.927 53.927 0 0 0-7.085 9.859c-1.607-1.93-3.696-4.436-5.354-5.885-.566-.492-1.866-1.203-2.508-1.433-.955-.344-2.056-.452-3.133-.452a8.23 8.23 0 0 0-3.317.692 8.354 8.354 0 0 0-2.679 1.878C3.068 21.588-1.924 38.702.783 54.963c.036.21.074.42.108.63.062.22.127.427.205.634a8.353 8.353 0 0 0 7.805 5.363c4.593 0 8.32-3.719 8.32-8.307 0-.473-.036-.86-.11-1.312-.47-2.218-.644-4.643-.644-7.13a34.805 34.805 0 0 1 4.152-16.532 35.246 35.246 0 0 1 7.955-9.934 56.49 56.49 0 0 0-4.64 16.209c-1.067 8.194-.327 16.61 2.4 24.493-.046-.108-.09-.218-.137-.326 1.491 3.898 6.104 6.079 10.07 4.9 2.196-.65 4.076-2.243 5.094-4.292 1.18-2.379.793-5.016.48-7.55-.938-7.496-.157-15.354 2.17-22.645a51.421 51.421 0 0 1 3.822-8.96c1.265-2.194 3.133-3.944 5.377-5.13.023-.013-.332-.005-.342 0-3.813 7.02-6.48 14.93-7.057 23.34 0 1.213.229 2.425.229 3.646 0 3.347.317 6.627.875 9.818.197 1.129.549 2.411.803 3.516 1.054 3.38 4.255 5.659 7.987 5.659 4.084 0 7.832-2.874 8.535-6.75.235-2.425.014-4.622.014-6.853 0-13.065 4.054-24.843 11.503-34.434.959-1.278.965-2.915.965-4.627 0-4.59-3.745-8.308-8.341-8.308z" fill="#FFF"/></g></svg>